<svg width="22" height="22" viewBox="0 0 22 22" fill="none" xmlns="http://www.w3.org/2000/svg">
<path d="M20.1214 21.6431L12.5928 14.1145C11.9953 14.5925 11.3082 14.9709 10.5314 15.2498C9.75468 15.5286 8.92813 15.668 8.05178 15.668C5.88084 15.668 4.0437 14.916 2.54037 13.4118C1.03704 11.9077 0.284976 10.0706 0.28418 7.90041C0.28418 5.72947 1.03624 3.89233 2.54037 2.389C4.0445 0.885672 5.88163 0.133609 8.05178 0.132812C10.2227 0.132812 12.0599 0.884876 13.5632 2.389C15.0665 3.89313 15.8186 5.73027 15.8194 7.90041C15.8194 8.77676 15.68 9.60331 15.4011 10.3801C15.1223 11.1568 14.7439 11.844 14.2659 12.4415L21.7945 19.9701L20.1214 21.6431ZM8.05178 13.278C9.54555 13.278 10.8155 12.755 11.8615 11.7089C12.9075 10.6629 13.4301 9.39339 13.4294 7.90041C13.4294 6.40664 12.9063 5.13674 11.8603 4.0907C10.8143 3.04467 9.54475 2.52205 8.05178 2.52284C6.55801 2.52284 5.28811 3.04586 4.24207 4.0919C3.19603 5.13794 2.67341 6.40744 2.67421 7.90041C2.67421 9.39418 3.19723 10.6641 4.24327 11.7101C5.2893 12.7562 6.55881 13.2788 8.05178 13.278Z" fill="white"/>
</svg>
